<svg width="97" height="97" fill="none" xmlns="http://www.w3.org/2000/svg"><g clip-path="url('#clip0_1_101')"><path d="M89.971 1.672v.954L88.566 0a1.672 1.672 0 0 1 1.405 1.672Z" fill="#6B5B4B"/><path d="M1.032 70.977a1.331 1.331 0 0 0-.267.134l.267-.134ZM1.082 70.96a.382.382 0 0 1 .184 0h-.184ZM89.971 1.672v.954L88.566 0a1.672 1.672 0 0 1 1.405 1.672Z" fill="#F7B563"/><path d="m3.942 71.145-1.957-.285a1.67 1.67 0 0 0-1.17.251c.343-.23.76-.326 1.17-.267l1.957.3Z" fill="#F7E6A1"/><path d="M96.928 11.088v84.24c0 .923-.749 1.672-1.672 1.672H21.369a1.672 1.672 0 0 1-1.138-.435l-8.596-7.927v-8.362H6.618A8.26 8.26 0 0 1 .095 72.8c-.051-.336.002-.68.15-.986a.416.416 0 0 1 .084-.168c.116-.215.283-.4.485-.535.084-.055.174-.099.268-.133h.384c.171-.034.349-.034.52 0l1.956.284c1.254-2.927 20.755-3.312 22.745-14.4l-8.362-48.5c0-.923.749-1.672 1.672-1.672L88.3 0h.267l1.372 2.626v-.954A1.673 1.673 0 0 0 88.566 0l1.673.301 6.455 9.867c.166.278.248.597.234.92Z" fill="#6B5B4B"/><path d="M1.082 70.96a.382.382 0 0 1 .184 0h-.184a1.331 1.331 0 0 0-.267.134l.217-.133h.05ZM1.985 70.844l1.957.3-1.957-.284a1.35 1.35 0 0 0-.518 0c.17-.04.346-.045.518-.016ZM89.971 1.672v.954L88.566 0a1.672 1.672 0 0 1 1.405 1.672Z" fill="#F7E6A1"/><path d="M89.971 1.672V2.71l-1.405 84.257c0 .923-.749 1.672-1.672 1.672H11.635v-8.362H6.618A8.26 8.26 0 0 1 .096 72.8c-.112-.65.17-1.306.719-1.672a1.67 1.67 0 0 1 1.17-.25l1.957.283c1.254-2.826 20.755-3.21 22.745-14.299l-8.362-48.5c0-.923.749-1.672 1.672-1.672L88.3 0c.923 0 1.672.75 1.672 1.672Z" fill="#F7B563"/><path d="M88.299 0H11.635c-.923 0-1.672.75-1.672 1.672v48.5a93 93 0 0 1-6.02 20.973l-1.958-.285a1.672 1.672 0 0 0-1.89 1.94 8.361 8.361 0 0 0 6.523 7.476h75.259l8.077-77.533v-1.07C89.954.755 89.217.007 88.3 0Z" fill="#F7E6A1"/><path d="M81.876 80.276H6.618A8.361 8.361 0 0 1 .095 72.8a1.672 1.672 0 0 1 1.907-1.94l1.957.285 6.372.97 71.545 8.16Z" fill="#EFCE4A"/></g><defs><clipPath id="clip0_1_101"><path fill="#fff" d="M0 0h97v97H0z"/></clipPath></defs></svg>