<svg width="100" height="100" fill="none" xmlns="http://www.w3.org/2000/svg"><path d="m78.941 20.115 6.309 30.182-16.66-9.113L78.94 20.115Z" fill="#616D77"/><path d="m85.25 50.297-3.31 27.281-13.35-36.394 16.66 9.113Z" fill="#505C63"/><path d="m68.59 41.184 13.35 36.394-37.375-9.394-9.793-12.471 33.818-14.53Z" fill="#798795"/><path d="M81.94 77.578 71.727 94.353l-27.863-8.42.7-17.75 37.374 9.395Z" fill="#616D77"/><path d="M78.941 20.115 68.59 41.184 57.375 20.043l.043-17.895 21.523 17.967Z" fill="#8E99A3"/><path d="m71.728 94.353-32.003 3.499-18.565-9.297 22.705-2.621 27.863 8.42Z" fill="#505C63"/><path d="m57.375 20.043 11.215 21.14-33.819 14.53.866-17.385 21.738-18.285Z" fill="#616D77"/><path d="m57.418 2.148-.043 17.895-18.2-4.361L57.419 2.148Z" fill="#93A1AD"/><path d="M57.375 20.043 35.637 38.328 21.219 23.297l17.957-7.615 18.199 4.361Z" fill="#798795"/><path d="m34.772 55.713 9.793 12.47-.7 17.75-22.705 2.622L14.75 65.4l20.022-9.687Z" fill="#8E99A3"/><path d="m21.219 23.297 14.418 15.031-.865 17.385L14.75 65.4l6.469-42.103Z" fill="#93A1AD"/><path d="m30.305 87.499-9.145 1.056 18.565 9.297 7.833-.856-17.253-9.497Z" fill="#414A4F"/><path d="M57.418 2.148 39.176 15.682 47.18 17.6l10.217-7.294.02-8.158Z" fill="#748089"/><path d="m26.818 29.134-5.6-5.837L14.75 65.4l8.284-4.008 3.784-32.258Z" fill="#79848C"/><path d="m47.181 17.6-8.005-1.918-17.957 7.615 5.599 5.837L47.18 17.6Z" fill="#5E6A75"/><path d="m14.75 65.4 6.41 23.155 9.145-1.056-7.271-26.107L14.75 65.4Z" fill="#747C82"/><path d="M23.742 34.651a1.172 1.172 0 0 1-1.157-1.364l.117-.703a1.172 1.172 0 0 1 2.312.384l-.117.703a1.172 1.172 0 0 1-1.155.98ZM20.952 51.456a1.172 1.172 0 0 1-1.157-1.364l2.17-13.072a1.171 1.171 0 0 1 2.312.383l-2.17 13.073a1.172 1.172 0 0 1-1.155.98Z" fill="#F4F8FC"/></svg>