<svg width="97" height="97" fill="none" xmlns="http://www.w3.org/2000/svg"><path d="m43.894 56.902-1.29.297-4.619-1.69-.396-.914 2.307-6.305 1-.352 4.727 1.73.578.93-2.307 6.304Z" fill="#D9ECFD"/><path d="m35.27 55.159-5.084 13.895a15.666 15.666 0 0 0-4.614-2.563c-8-2.815-16.9 1.33-19.893 9.265-3.062 8.119 1.039 17.15 9.108 20.216 8.21 3.118 17.378-1.241 20.395-9.488l10.12-27.654a1.326 1.326 0 0 0-.79-1.701l-7.54-2.76a1.326 1.326 0 0 0-1.702.79Zm-7.068 29.008a8.345 8.345 0 1 1-15.674-5.736 8.345 8.345 0 0 1 15.674 5.736Z" fill="#FC5A36"/><path d="M20.83 96.04c-8.14-2.98-12.324-11.993-9.345-20.135 1.97-5.377 6.568-9.028 11.811-10.028-7.421-1.422-14.991 2.702-17.671 10.028C2.645 84.047 6.83 93.06 14.97 96.04a15.631 15.631 0 0 0 8.33.681 15.643 15.643 0 0 1-2.47-.681Zm14.44-40.88-5.084 13.894c1.764 1.649 3.405 3.897 3.698 6.083l7.011-19.332-3.924-1.436a1.327 1.327 0 0 0-1.7.79Z" fill="#DB3915"/><path d="m53.106 56.902 1.267.297 4.534-1.658.504-.946-2.308-6.305-1.01-.352-4.657 1.704-.638.955 2.308 6.305ZM55.444 0c5.54 2.027 8.388 8.162 6.36 13.702L48.52 50.033a1.326 1.326 0 0 1-1.701.79l-7.54-2.76a1.326 1.326 0 0 1-.79-1.7L55.443 0Z" fill="#C5E2FF"/><path d="M91.32 75.756c-2.992-7.936-11.892-12.08-19.892-9.265a15.67 15.67 0 0 0-4.614 2.563L61.73 55.16a1.326 1.326 0 0 0-1.702-.79l-7.54 2.76a1.326 1.326 0 0 0-.79 1.7l10.12 27.655c3.003 8.209 12.223 12.591 20.395 9.488 8.07-3.066 12.17-12.097 9.108-20.216Zm-11.817 13.38a8.345 8.345 0 1 1-5.736-15.674 8.345 8.345 0 0 1 5.736 15.674Z" fill="#FC5A36"/><path d="M67.754 86.692 57.56 58.83a1.326 1.326 0 0 1 .79-1.701l3.617-1.324-.236-.645a1.327 1.327 0 0 0-1.701-.79l-7.54 2.759a1.326 1.326 0 0 0-.79 1.7l10.195 27.863c2.68 7.325 10.248 11.447 17.667 10.03-5.241-1.003-9.84-4.654-11.807-10.03Z" fill="#DB3915"/><path d="M41.556 0c-5.54 2.027-8.388 8.162-6.36 13.702L48.48 50.033a1.326 1.326 0 0 0 1.701.79l7.54-2.76a1.326 1.326 0 0 0 .79-1.7L41.556 0Z" fill="#D9ECFD"/><path d="M49.357 38.21a1.421 1.421 0 1 1 0-2.842 1.421 1.421 0 0 1 0 2.842Z" fill="#C5E2FF"/></svg>