<svg width="97" height="97" viewBox="0 0 97 97" fill="none" xmlns="http://www.w3.org/2000/svg">
<g clip-path="url(#clip0_1_101)">
<path d="M89.9711 1.67249V2.62582L88.5663 0C89.384 0.132049 89.9828 0.844582 89.9711 1.67249Z" fill="#6B5B4B"/>
<path d="M1.03216 70.9773C0.938566 71.0123 0.848197 71.0559 0.764648 71.111L1.03216 70.9773Z" fill="#F7B563"/>
<path d="M1.0824 70.9606C1.14264 70.9456 1.20611 70.9456 1.26636 70.9606H1.0824Z" fill="#F7B563"/>
<path d="M89.9711 1.67249V2.62582L88.5663 0C89.384 0.132049 89.9828 0.844582 89.9711 1.67249Z" fill="#F7B563"/>
<path d="M3.94212 71.1446L1.98545 70.8602C1.57737 70.7967 1.16095 70.8852 0.814819 71.111C1.15773 70.8803 1.57585 70.785 1.98545 70.8435L3.94212 71.1446Z" fill="#F7E6A1"/>
<path d="M96.9284 11.0881V95.3277C96.9284 96.2509 96.1791 97.0002 95.2559 97.0002H21.3686C20.9488 97.0036 20.5424 96.8481 20.2313 96.5654L11.6351 88.6381V80.276H6.61797C3.02234 79.5118 0.364884 76.4663 0.0954816 72.8004C0.0435714 72.4643 0.0971867 72.1197 0.245907 71.8137C0.260874 71.7518 0.289482 71.6949 0.329456 71.6464C0.444833 71.4306 0.61212 71.2467 0.814456 71.1112C0.898005 71.0561 0.988374 71.0125 1.08196 70.9775H1.26592H1.36633H1.46674C1.63725 70.9439 1.81458 70.9439 1.98528 70.9775L3.94195 71.2618C5.19632 68.3352 24.6965 67.9504 26.6867 56.8623L18.3247 8.36227C18.3247 7.43907 19.0739 6.68978 19.9972 6.68978L88.2986 0H88.5661L89.9376 2.62563V1.67249C89.951 0.854623 89.3705 0.147205 88.5661 0L90.2386 0.301041L96.694 10.1683C96.8598 10.4459 96.9417 10.7653 96.9284 11.0881Z" fill="#6B5B4B"/>
<path d="M1.08233 70.9606C1.14257 70.9456 1.20604 70.9456 1.26629 70.9606H1.08233C0.988737 70.9957 0.898368 71.0392 0.814819 71.0944L1.03231 70.9606H1.08233Z" fill="#F7E6A1"/>
<path d="M1.98521 70.8435L3.94188 71.1446L1.98521 70.8602C1.8147 70.8267 1.63737 70.8267 1.46667 70.8602C1.63737 70.82 1.813 70.8149 1.98521 70.8435Z" fill="#F7E6A1"/>
<path d="M89.9711 1.67249V2.62582L88.5663 0C89.384 0.132049 89.9828 0.844582 89.9711 1.67249Z" fill="#F7E6A1"/>
<path d="M89.9711 1.67249V2.70937L88.5663 86.9656C88.5663 87.8888 87.817 88.6381 86.8938 88.6381H11.6353V80.276H6.618C3.02237 79.5118 0.364909 76.4663 0.0955064 72.8004C-0.0164604 72.1498 0.266014 71.4943 0.81467 71.1279C1.1608 70.9021 1.57722 70.8134 1.9853 70.8771L3.94197 71.1614C5.19634 68.335 24.6966 67.9504 26.6868 56.8623L18.3247 8.36227C18.3247 7.43907 19.074 6.68978 19.9972 6.68978L88.2986 0C89.2218 0 89.9711 0.749287 89.9711 1.67249Z" fill="#F7B563"/>
<path d="M88.2986 0H11.6352C10.712 0 9.96273 0.749287 9.96273 1.67249V50.1725C8.78528 57.3755 6.76514 64.4148 3.9421 71.1446L1.98543 70.8602C1.07227 70.7264 0.222759 71.3587 0.0890048 72.2733C0.063997 72.449 0.0655126 72.6263 0.0956357 72.8002C0.396677 76.4527 3.04068 79.4815 6.61813 80.2758H81.8767L89.9544 2.74271V1.6723C89.9544 0.755918 89.2168 0.00833594 88.2986 0Z" fill="#F7E6A1"/>
<path d="M81.8764 80.2758H6.6179C3.04065 79.4815 0.396453 76.4527 0.0954124 72.8002C-0.0635388 71.8905 0.545364 71.0241 1.45512 70.8651C1.63567 70.8333 1.82133 70.8316 2.00207 70.8602L3.95874 71.1446L10.3306 72.1146L81.8764 80.2758Z" fill="#EFCE4A"/>
</g>
<defs>
<clipPath id="clip0_1_101">
<rect width="97" height="97" fill="white"/>
</clipPath>
</defs>
</svg>
