<svg width="100" height="100" viewBox="0 0 100 100" fill="none" xmlns="http://www.w3.org/2000/svg">
<path d="M78.9414 20.1152L85.25 50.2969L68.5898 41.1836L78.9414 20.1152Z" fill="#616D77"/>
<path d="M85.25 50.2969L81.9395 77.5781L68.5898 41.1836L85.25 50.2969Z" fill="#505C63"/>
<path d="M68.5898 41.1836L81.9395 77.5781L44.5645 68.1836L34.7715 55.7129L68.5898 41.1836Z" fill="#798795"/>
<path d="M81.9395 77.5781L71.7285 94.3535L43.8652 85.9336L44.5645 68.1836L81.9395 77.5781Z" fill="#616D77"/>
<path d="M78.9414 20.1152L68.5898 41.1836L57.375 20.043L57.418 2.14844L78.9414 20.1152Z" fill="#8E99A3"/>
<path d="M71.7285 94.3535L39.7246 97.8516L21.1602 88.5547L43.8652 85.9336L71.7285 94.3535Z" fill="#505C63"/>
<path d="M57.375 20.043L68.5898 41.1836L34.7715 55.7129L35.6367 38.3281L57.375 20.043Z" fill="#616D77"/>
<path d="M57.418 2.14844L57.375 20.043L39.1758 15.6816L57.418 2.14844Z" fill="#93A1AD"/>
<path d="M57.375 20.043L35.6367 38.3281L21.2188 23.2969L39.1758 15.6816L57.375 20.043Z" fill="#798795"/>
<path d="M34.7715 55.7129L44.5645 68.1836L43.8652 85.9336L21.1602 88.5547L14.75 65.4004L34.7715 55.7129Z" fill="#8E99A3"/>
<path d="M21.2188 23.2969L35.6367 38.3281L34.7715 55.7129L14.75 65.4004L21.2188 23.2969Z" fill="#93A1AD"/>
<path d="M30.3053 87.499L21.1602 88.5547L39.7246 97.8516L47.5576 96.9955L30.3053 87.499Z" fill="#414A4F"/>
<path d="M57.418 2.14844L39.1758 15.6816L47.1811 17.6L57.3984 10.3059L57.418 2.14844Z" fill="#748089"/>
<path d="M26.8176 29.134L21.2188 23.2969L14.75 65.4004L23.0338 61.3922L26.8176 29.134Z" fill="#79848C"/>
<path d="M47.1811 17.6L39.1758 15.6816L21.2188 23.2969L26.8176 29.134L47.1811 17.6Z" fill="#5E6A75"/>
<path d="M14.75 65.4004L21.1602 88.5547L30.3053 87.499L23.0338 61.3922L14.75 65.4004Z" fill="#747C82"/>
<path d="M23.7419 34.6512C23.6771 34.6511 23.6123 34.6458 23.5484 34.6352C23.2419 34.5842 22.9682 34.4136 22.7874 34.1609C22.6067 33.9082 22.5337 33.594 22.5845 33.2875L22.7017 32.5844C22.7531 32.2782 22.9239 32.005 23.1765 31.8247C23.4292 31.6443 23.7431 31.5716 24.0493 31.6224C24.3555 31.6733 24.629 31.8435 24.8099 32.0958C24.9907 32.3481 25.064 32.6618 25.0138 32.9682L24.8966 33.6713C24.8512 33.9448 24.7102 34.1934 24.4988 34.3728C24.2874 34.5522 24.0192 34.6508 23.7419 34.6512Z" fill="#F4F8FC"/>
<path d="M20.9523 51.4555C20.8876 51.4554 20.823 51.45 20.7591 51.4394C20.4526 51.3885 20.1789 51.2179 19.9981 50.9652C19.8173 50.7125 19.7443 50.3983 19.7951 50.0918L21.965 37.0199C22.0174 36.7147 22.1884 36.4426 22.4408 36.2632C22.6932 36.0837 23.0063 36.0114 23.3118 36.0621C23.6173 36.1128 23.8903 36.2823 24.0712 36.5336C24.2521 36.785 24.3261 37.0977 24.2771 37.4035L22.107 50.4756C22.0616 50.7491 21.9206 50.9977 21.7092 51.1771C21.4978 51.3565 21.2296 51.4551 20.9523 51.4555Z" fill="#F4F8FC"/>
</svg>
